<svg width="32" height="40" fill="none" xmlns="http://www.w3.org/2000/svg"><path d="m29.392 11.559-2.223-1.287c.22 1.034.389 2.056.492 3.036.088.846.22 2.693.22 2.781v12.485c0 .267-.318.82-.549.953L16.55 35.77c-.066.039-.275.1-.548.1-.274 0-.482-.061-.549-.1L4.668 29.527c-.231-.134-.549-.686-.549-.954V16.09c0-.267.32-.82.55-.953l5.988-3.467c.698-.965 1.497-1.992 2.355-3.094a152.326 152.326 0 0 0 2.974-3.911c-.95.002-1.87.234-2.595.653L2.608 11.56C1.098 12.434 0 14.34 0 16.09v12.483c0 1.75 1.097 3.656 2.608 4.531l10.783 6.243c.728.422 1.655.653 2.61.653.953 0 1.88-.231 2.608-.654l10.783-6.242c1.512-.875 2.608-2.78 2.608-4.53V16.09c0-1.75-1.096-3.655-2.608-4.531Z" fill="#37BFA7"/><path d="M13.274 32.946c3.135-4.65 4.839-11.693 5.652-16.11-2.06 3.85-5.68 9.79-10.092 13.548-.024-.039-.038-.024 4.44 2.562Z" fill="#37BFA7"/><path d="M20.432.257c-4.59 7.88-10.756 13.32-11.145 16.924-.364 3.368.836 6.148 2.802 7.878a50.69 50.69 0 0 0 2.224-3.05c-.036-.697-.296-6.135.271-7.665.324 2.361.994 4.54 1.244 5.302l.243-.402a71.406 71.406 0 0 0 1.446-2.526c-.051-1.384-.193-6.255.283-7.372.126 1.61.716 3.658 1.07 4.774.47-.953.728-1.532.733-1.545l1.665-3.76-.437 4.09c-.002.021-.149 1.37-.504 3.424.976-.806 2.525-2.16 3.278-3.226.065 1.285-2.735 4.723-3.81 5.997a73.92 73.92 0 0 1-.66 2.828c.932-.526 3.07-1.788 4.265-2.935-.181 1.309-3.975 4.636-4.979 5.496a50.712 50.712 0 0 1-.822 2.487c2.304-.133 4.724-1.312 6.75-3.835C30.405 15.6 21.952-2.353 20.432.257Z" fill="#37BFA7"/></svg>