<svg fill="none" xmlns="http://www.w3.org/2000/svg" viewBox="0 0 40 40">
  <circle opacity=".1" cx="20" cy="20" r="20" fill="#CA2121"/>
  <path d="M20 24.5c-.0742 0-.1467.022-.2083.0632-.0617.0412-.1098.0998-.1382.1683-.0283.0685-.0358.1439-.0213.2167.0145.0727.0502.1395.1026.192.0525.0524.1193.0881.192.1026.0728.0145.1482.007.2167-.0213.0685-.0284.1271-.0765.1683-.1382.0412-.0616.0632-.1341.0632-.2083 0-.0995-.0395-.1948-.1098-.2652-.0704-.0703-.1657-.1098-.2652-.1098ZM20 21.5V14" stroke="#CA2121" stroke-width="1.5" stroke-linecap="round" stroke-linejoin="round"/>
  <path d="M9.27995 21.281c-.33935-.3398-.52995-.8003-.52995-1.2805 0-.4802.1906-.9407.52995-1.2805l9.43995-9.439c.168-.16835.3675-.30192.5871-.39306.2197-.09113.4551-.13804.6929-.13804.2378 0 .4733.04691.693.13804.2196.09114.4191.22471.587.39306l9.44 9.439c.3394.3398.53.8003.53 1.2805 0 .4802-.1906.9407-.53 1.2805l-9.44 9.439c-.3395.3393-.7999.5299-1.28.5299-.48 0-.9404-.1906-1.28-.5299l-9.43995-9.439Z" stroke="#CA2121" stroke-width="1.5" stroke-linecap="round" stroke-linejoin="round"/>
</svg>
